<?xml version="1.0" encoding="UTF-8" standalone="no"?>
<!DOCTYPE svg PUBLIC "-//W3C//DTD SVG 1.1//EN" "http://www.w3.org/Graphics/SVG/1.1/DTD/svg11.dtd">
<svg version="1.1" xmlns="http://www.w3.org/2000/svg" xmlns:xlink="http://www.w3.org/1999/xlink" preserveAspectRatio="xMidYMid meet" viewBox="0 0 640 640" width="640" height="640"><defs><path d="M133.08 414.9C90.8 415.03 48.49 415.44 6.22 414.9C5.39 414.95 4.56 414.81 3.79 414.49C2.35 413.74 2.54 411.92 2.66 410.57C3.83 396.69 9.76 385.45 21.19 377.34C28.45 372.19 37.15 369.44 46.05 369.47C64.77 369.34 83.49 369.47 102.2 369.34C104.29 369.34 105.25 370.37 106.25 371.86C112.58 381.19 121.46 385.86 132.65 385.22C141.64 384.72 148.97 380.5 154.33 373.19C154.76 372.64 155.04 371.99 155.12 371.3C155.12 370.02 153.54 369.78 152.59 369.77C146.86 369.69 141.13 369.65 135.43 369.77C133.89 369.97 132.4 369.17 131.72 367.78C130 364.61 127.97 361.58 126.39 358.34C125.81 357.02 125.77 355.53 126.29 354.18C127.95 350.75 129.84 347.43 131.95 344.25C132.69 343.23 133.84 342.57 135.09 342.44C138.5 342.33 141.9 342.32 145.31 342.31C148.18 342.44 151.06 342.34 153.92 342.02C156.69 341.57 154.83 339.4 153.76 338.13C152.47 336.48 151.01 334.97 149.42 333.61C140.92 326.55 129.16 324.89 119.03 329.31C118.99 329.33 118.79 329.42 118.42 329.59C118.28 329.66 118.21 329.69 118.19 329.7C117.95 329.82 117.71 329.93 117.45 330.07C113.27 332.21 109.68 335.35 106.99 339.19C105.19 341.4 102.51 342.69 99.66 342.7C86.11 342.62 72.49 342.89 58.91 342.64C58.83 342.64 58.14 342.64 58.05 342.64C29.32 342.07 5.41 322.05 0.89 293.64C-2.72 271.29 4.7 252.59 21.95 238.15C35.94 226.41 51.42 225.58 68.85 225.24C88.03 224.88 107.19 225.2 126.38 225.16C145.03 225.16 163.67 224.79 182.31 224.82C187.06 224.82 186.82 227.53 186.39 231.38C184.31 249.37 174.56 261.6 157.81 267.85C152.68 269.78 146.81 270.36 141.27 270.46C124.38 270.78 107.47 270.46 90.58 270.61C88.58 270.79 86.66 269.79 85.66 268.04C79.73 258.96 71.16 254.38 60.43 254.71C48.83 255.07 40.13 260.76 35.03 271.18C30.12 281.21 30.96 291.19 37.27 300.45C37.28 300.46 37.37 300.59 37.38 300.61C37.5 300.93 37.66 301.24 37.86 301.51C41.21 306.04 45.82 309.49 51.12 311.43C51.39 311.54 51.65 311.63 51.93 311.72C52.21 311.81 52.38 311.86 52.61 311.93C52.83 312.01 52.9 312.03 53.05 312.07C59.85 314.08 67.16 313.5 73.55 310.44C73.85 310.3 74.14 310.16 74.45 310C78.62 307.85 82.2 304.72 84.89 300.88C86.69 298.6 89.43 297.27 92.34 297.27C105.88 297.35 119.43 297.08 132.98 297.33C133.07 297.33 133.79 297.33 133.88 297.33C162.67 297.92 186.55 317.94 191.1 346.34C194.66 368.74 187.28 387.46 170.03 401.9C159.49 410.73 146.84 414.87 133.08 414.9Z" id="b2kHVpo10C"></path><path d="M54.23 270.44C53.56 270.44 52.93 270.8 52.59 271.38C51.87 272.63 46.09 282.63 45.36 283.87C45.02 284.46 45.02 285.19 45.36 285.77C46.09 287.02 51.87 297.01 52.59 298.26C52.93 298.85 53.56 299.21 54.23 299.21C55.68 299.21 67.24 299.21 68.68 299.21C69.36 299.21 69.99 298.85 70.33 298.26C71.05 297.01 76.83 287.02 77.55 285.77C77.89 285.18 77.89 284.46 77.55 283.87C76.83 282.63 71.05 272.63 70.33 271.38C69.99 270.8 69.36 270.44 68.68 270.44C68.68 270.44 55.68 270.44 54.23 270.44Z" id="a1RsyiSWXu"></path><path d="M248.68 394.85C246.06 396.14 243.17 396.79 240.25 396.74C225.13 396.74 218.68 383.12 218.68 369.73C218.68 355.28 226.07 342.33 241.91 342.33C244.31 342.21 246.72 342.67 248.91 343.66C248.91 345.16 248.91 357.13 248.91 358.63C247.03 356.66 245.21 355.48 242.38 355.48C234.9 355.48 233.16 363.5 233.16 369.49C233.16 375.32 234.9 383.04 242.14 383.04C245.21 383.04 247.34 381.62 249.55 379.65C249.37 382.69 248.85 391.81 248.68 394.85Z" id="bisOy3Ht9"></path><path d="M294.28 395.8C293.62 381.44 293.25 373.45 293.18 371.86C293.02 368.71 293.02 365.47 292.87 362.33C292.55 365.72 292.07 369.09 291.44 372.41C291.15 373.97 289.68 381.77 287.04 395.8L275.45 395.8C272.99 380.63 271.63 372.2 271.36 370.51C270.89 367.8 270.64 365.09 270.41 362.33C270.33 366.19 270.41 370.12 270.17 373.98C270.09 375.44 269.67 382.71 268.91 395.8L253.72 395.8L259.87 343.26C270.45 343.26 276.33 343.26 277.51 343.26C279.08 352.64 280.89 361.78 281.6 371.26C282.63 361.82 284.75 352.59 286.48 343.26C287.65 343.26 293.48 343.26 303.97 343.26L309.09 395.8L294.28 395.8Z" id="dRIB7s0T6"></path><path d="M338.67 395.8L329.18 370.68L329.56 395.8L315.39 395.8L315.39 343.26L329.56 343.26L329.18 366.75L337.52 343.26L352.49 343.26L341.31 368.62L353.95 395.8L338.67 395.8Z" id="aUVlXvJq9"></path><path d="M360.23 377.45L360.23 372.84L371.07 372.84L371.07 377.41L360.23 377.45Z" id="blF9Bapjb"></path><path d="M379.37 343.26L384.26 343.26C384.26 364.63 384.26 376.49 384.26 378.87C384.23 381.08 384.09 383.29 383.82 385.49C384.93 381.78 385.16 380.76 385.71 379.11C386.46 376.72 390.18 364.78 396.89 343.27L401.78 343.27L401.78 395.81L396.89 395.81C396.89 375.43 396.89 364.12 396.89 361.85C396.89 359.1 397.21 355.63 397.36 353.59C396.03 358.7 395.79 359.25 395.24 360.98C394.51 363.31 390.86 374.91 384.29 395.8L379.41 395.8L379.37 343.26Z" id="h2AgDkOJe1"></path><path d="M423.64 395.8L423.64 379.34L414.34 379.34L414.34 395.8L409.93 395.8L409.93 360.58L414.34 360.58L414.34 375.23L423.64 375.23L423.64 360.6L428.08 360.6L428.08 395.82L423.64 395.8Z" id="a79hQ3MQ4u"></path><path d="M459.87 395.8L450.84 379.65L450.84 395.8L446.32 395.8L446.32 379.65L437.29 395.8L432.14 395.8L442.77 377.45L432.77 360.6L437.58 360.6L446.32 375.95L446.32 360.6L450.84 360.6L450.84 375.95L459.58 360.6L464.38 360.6L454.35 377.45L464.98 395.8L459.87 395.8Z" id="a23oiBzNS"></path><path d="M483.26 395.8C483.26 382.66 483.26 375.36 483.26 373.9C483.26 373.28 483.26 372.41 483.41 368.86C483.03 370.67 482.48 372.44 481.76 374.14C481.21 375.59 478.45 382.81 473.49 395.82L469.08 395.82L469.08 360.6L473.49 360.6C473.49 373.63 473.49 380.88 473.49 382.33C473.49 384.13 473.49 385.24 473.33 387.74C473.77 385.98 474.32 384.24 474.99 382.55C475.54 381.09 478.3 373.76 483.26 360.58L487.69 360.58L487.69 395.8L483.26 395.8Z" id="edY6EOHQ9"></path><path d="M509.25 395.8L509.25 379.34L499.96 379.34L499.96 395.8L495.54 395.8L495.54 360.58L499.96 360.58L499.96 375.23L509.25 375.23L509.25 360.6L513.66 360.6L513.66 395.82L509.25 395.8Z" id="a4xiX7kNlO"></path><path d="M535.71 395.8C535.71 382.66 535.71 375.36 535.71 373.9C535.71 373.28 535.71 372.41 535.87 368.86C535.48 370.67 534.93 372.44 534.22 374.14C533.66 375.59 530.91 382.81 525.94 395.82L521.54 395.82L521.54 360.6L525.94 360.6C525.94 373.63 525.94 380.88 525.94 382.33C525.94 384.13 525.94 385.24 525.79 387.74C526.23 385.98 526.78 384.24 527.44 382.55C527.99 381.09 530.75 373.76 535.71 360.58L540.12 360.58L540.12 395.8L535.71 395.8Z" id="bh8CBhkOJ"></path><path d="M552.41 362.95C553.63 361.07 555.76 359.96 558 360.05C566.67 360.05 566.75 371.14 566.75 377.53C566.75 385.09 566.51 396.35 558.47 396.35C555.76 396.35 554.07 395.01 552.41 392.96C552.41 394.1 552.41 399.77 552.41 409.97L548 409.97L548 360.6L552.41 360.6C552.41 361.85 552.41 362.64 552.41 362.95ZM552.02 378.04C552.02 381.11 552.02 389.38 554.22 391.58C554.93 392.4 555.98 392.83 557.06 392.77C561.16 392.77 561.63 387.72 561.94 384.64C562.18 381.93 562.18 379.13 562.18 376.37C562.18 372.84 562.1 363.59 556.97 363.59C552.41 363.59 552.02 370.99 552.02 378.04Z" id="b1rQrM0vA9"></path><path d="M587.46 395.8C587.46 382.66 587.46 375.36 587.46 373.9C587.46 373.28 587.46 372.41 587.62 368.86C587.22 370.67 586.67 372.43 585.97 374.14C585.41 375.59 582.66 382.81 577.69 395.82L573.29 395.82L573.29 360.6L577.69 360.6C577.69 373.63 577.69 380.88 577.69 382.33C577.69 384.13 577.69 385.24 577.54 387.74C577.97 385.98 578.52 384.24 579.19 382.55C579.74 381.09 582.5 373.76 587.46 360.58L591.87 360.58L591.87 395.8L587.46 395.8Z" id="aChXU52wp"></path><path d="M613.45 395.8L613.45 379.34L604.19 379.34L604.19 395.8L599.78 395.8L599.78 360.58L604.19 360.58L604.19 375.23L613.48 375.23L613.48 360.6L617.89 360.6L617.89 395.82L613.45 395.8Z" id="d1yyOxaHSh"></path><path d="M625.74 360.6L639.99 360.6L639.99 364.71L630.15 364.71L630.15 395.83L625.74 395.83L625.74 360.6Z" id="cawM6hVQy"></path></defs><g><g><g><use xlink:href="#b2kHVpo10C" opacity="1" fill="#56dc2a" fill-opacity="1"></use><g><use xlink:href="#b2kHVpo10C" opacity="1" fill-opacity="0" stroke="#000000" stroke-width="1" stroke-opacity="0"></use></g></g><g><use xlink:href="#a1RsyiSWXu" opacity="1" fill="#56dc2a" fill-opacity="1"></use><g><use xlink:href="#a1RsyiSWXu" opacity="1" fill-opacity="0" stroke="#000000" stroke-width="1" stroke-opacity="0"></use></g></g><g><use xlink:href="#bisOy3Ht9" opacity="1" fill="#fcfcfc" fill-opacity="1"></use><g><use xlink:href="#bisOy3Ht9" opacity="1" fill-opacity="0" stroke="#000000" stroke-width="1" stroke-opacity="0"></use></g></g><g><use xlink:href="#dRIB7s0T6" opacity="1" fill="#fcfcfc" fill-opacity="1"></use><g><use xlink:href="#dRIB7s0T6" opacity="1" fill-opacity="0" stroke="#000000" stroke-width="1" stroke-opacity="0"></use></g></g><g><use xlink:href="#aUVlXvJq9" opacity="1" fill="#fcfcfc" fill-opacity="1"></use><g><use xlink:href="#aUVlXvJq9" opacity="1" fill-opacity="0" stroke="#000000" stroke-width="1" stroke-opacity="0"></use></g></g><g><use xlink:href="#blF9Bapjb" opacity="1" fill="#fcfcfc" fill-opacity="1"></use><g><use xlink:href="#blF9Bapjb" opacity="1" fill-opacity="0" stroke="#000000" stroke-width="1" stroke-opacity="0"></use></g></g><g><use xlink:href="#h2AgDkOJe1" opacity="1" fill="#fcfcfc" fill-opacity="1"></use><g><use xlink:href="#h2AgDkOJe1" opacity="1" fill-opacity="0" stroke="#000000" stroke-width="1" stroke-opacity="0"></use></g></g><g><use xlink:href="#a79hQ3MQ4u" opacity="1" fill="#fcfcfc" fill-opacity="1"></use><g><use xlink:href="#a79hQ3MQ4u" opacity="1" fill-opacity="0" stroke="#000000" stroke-width="1" stroke-opacity="0"></use></g></g><g><use xlink:href="#a23oiBzNS" opacity="1" fill="#fcfcfc" fill-opacity="1"></use><g><use xlink:href="#a23oiBzNS" opacity="1" fill-opacity="0" stroke="#000000" stroke-width="1" stroke-opacity="0"></use></g></g><g><use xlink:href="#edY6EOHQ9" opacity="1" fill="#fcfcfc" fill-opacity="1"></use><g><use xlink:href="#edY6EOHQ9" opacity="1" fill-opacity="0" stroke="#000000" stroke-width="1" stroke-opacity="0"></use></g></g><g><use xlink:href="#a4xiX7kNlO" opacity="1" fill="#fcfcfc" fill-opacity="1"></use><g><use xlink:href="#a4xiX7kNlO" opacity="1" fill-opacity="0" stroke="#000000" stroke-width="1" stroke-opacity="0"></use></g></g><g><use xlink:href="#bh8CBhkOJ" opacity="1" fill="#fcfcfc" fill-opacity="1"></use><g><use xlink:href="#bh8CBhkOJ" opacity="1" fill-opacity="0" stroke="#000000" stroke-width="1" stroke-opacity="0"></use></g></g><g><use xlink:href="#b1rQrM0vA9" opacity="1" fill="#fcfcfc" fill-opacity="1"></use><g><use xlink:href="#b1rQrM0vA9" opacity="1" fill-opacity="0" stroke="#000000" stroke-width="1" stroke-opacity="0"></use></g></g><g><use xlink:href="#aChXU52wp" opacity="1" fill="#fcfcfc" fill-opacity="1"></use><g><use xlink:href="#aChXU52wp" opacity="1" fill-opacity="0" stroke="#000000" stroke-width="1" stroke-opacity="0"></use></g></g><g><use xlink:href="#d1yyOxaHSh" opacity="1" fill="#fcfcfc" fill-opacity="1"></use><g><use xlink:href="#d1yyOxaHSh" opacity="1" fill-opacity="0" stroke="#000000" stroke-width="1" stroke-opacity="0"></use></g></g><g><use xlink:href="#cawM6hVQy" opacity="1" fill="#fcfcfc" fill-opacity="1"></use><g><use xlink:href="#cawM6hVQy" opacity="1" fill-opacity="0" stroke="#000000" stroke-width="1" stroke-opacity="0"></use></g></g></g></g></svg>